<svg width="153" height="48" viewBox="0 0 153 48" fill="none" xmlns="http://www.w3.org/2000/svg">
<rect width="153" height="48" rx="24" fill="#6929F2"/>
<path d="M27.9906 13.7883C22.1945 13.786 17.5 18.4782 17.5 24.2696C17.5 28.8493 20.4367 32.7422 24.5266 34.1719C25.0773 34.3102 24.993 33.9188 24.993 33.6516V31.8352C21.8125 32.2079 21.6836 30.1032 21.4703 29.7516C21.0391 29.0157 20.0195 28.8282 20.3242 28.4766C21.0484 28.104 21.7867 28.5704 22.6422 29.8336C23.2609 30.7501 24.468 30.5954 25.0797 30.443C25.2133 29.8922 25.4992 29.4001 25.893 29.018C22.5977 28.4274 21.2242 26.4165 21.2242 24.0258C21.2242 22.8657 21.6062 21.7993 22.3562 20.9391C21.8781 19.5211 22.4008 18.3071 22.4711 18.1266C23.8328 18.0047 25.2484 19.1016 25.3586 19.1883C26.132 18.9797 27.0156 18.8696 28.0047 18.8696C28.9984 18.8696 29.8844 18.9844 30.6648 19.1954C30.9297 18.9938 32.2422 18.0516 33.5078 18.1665C33.5758 18.3469 34.0867 19.5329 33.6367 20.9321C34.3961 21.7946 34.7828 22.8704 34.7828 24.0329C34.7828 26.4282 33.4 28.4415 30.0953 29.0227C30.3784 29.3011 30.6031 29.633 30.7564 29.9992C30.9098 30.3654 30.9886 30.7585 30.9883 31.1555V33.7922C31.007 34.0032 30.9883 34.2118 31.3398 34.2118C35.4906 32.8126 38.4789 28.8915 38.4789 24.2719C38.4789 18.4782 33.782 13.7883 27.9906 13.7883Z" fill="#FCFCFC"/>
<path d="M70.896 29.288C69.936 29.288 69.0827 29.1333 68.336 28.824C67.5893 28.504 66.9547 28.0667 66.432 27.512C65.9093 26.9573 65.5093 26.312 65.232 25.576C64.9653 24.84 64.832 24.0613 64.832 23.24V22.888C64.832 22.152 64.96 21.432 65.216 20.728C65.472 20.024 65.8453 19.3893 66.336 18.824C66.8373 18.2587 67.4453 17.8107 68.16 17.48C68.8853 17.1493 69.712 16.984 70.64 16.984C71.632 16.984 72.5173 17.176 73.296 17.56C74.0747 17.9333 74.6987 18.456 75.168 19.128C75.6373 19.7893 75.9093 20.5573 75.984 21.432H74.032C73.968 20.856 73.7707 20.3707 73.44 19.976C73.12 19.5813 72.7147 19.2827 72.224 19.08C71.744 18.8667 71.216 18.76 70.64 18.76C70.064 18.76 69.536 18.8667 69.056 19.08C68.5867 19.2827 68.1813 19.576 67.84 19.96C67.4987 20.3333 67.2373 20.7867 67.056 21.32C66.8747 21.8427 66.784 22.4293 66.784 23.08C66.784 23.8053 66.88 24.4453 67.072 25C67.2747 25.5547 67.5573 26.024 67.92 26.408C68.2827 26.7813 68.7147 27.0693 69.216 27.272C69.728 27.464 70.288 27.56 70.896 27.56C71.7387 27.56 72.4747 27.3893 73.104 27.048C73.744 26.696 74.224 26.2427 74.544 25.688L74.048 27.56V24.312H75.84V27C75.3173 27.7253 74.6347 28.2907 73.792 28.696C72.96 29.0907 71.9947 29.288 70.896 29.288ZM70.496 24.696V23.192H76.816V24.696H70.496ZM79.1045 29V20.376H80.9765V29H79.1045ZM77.8405 21.816V20.376H80.9765V21.816H77.8405ZM79.7125 19.176C79.3285 19.176 79.0405 19.0747 78.8485 18.872C78.6672 18.6693 78.5765 18.408 78.5765 18.088C78.5765 17.7787 78.6672 17.5227 78.8485 17.32C79.0405 17.1067 79.3285 17 79.7125 17C80.1072 17 80.3952 17.1067 80.5765 17.32C80.7685 17.5227 80.8645 17.7787 80.8645 18.088C80.8645 18.408 80.7685 18.6693 80.5765 18.872C80.3952 19.0747 80.1072 19.176 79.7125 19.176ZM87.3026 29.096C86.588 29.096 85.9853 29 85.4946 28.808C85.004 28.616 84.6306 28.2853 84.3746 27.816C84.1293 27.3467 84.0066 26.712 84.0066 25.912V17.864H85.7826V26.072C85.7826 26.52 85.9 26.8667 86.1346 27.112C86.38 27.3467 86.7213 27.464 87.1586 27.464H88.5986V29.096H87.3026ZM82.5826 21.768V20.376H88.5986V21.768H82.5826ZM90.626 29V17.32H92.498V24.216H92.114C92.114 23.3627 92.2207 22.632 92.434 22.024C92.658 21.4053 92.994 20.936 93.442 20.616C93.9007 20.2853 94.4767 20.12 95.17 20.12H95.25C96.2633 20.12 97.026 20.4613 97.538 21.144C98.0607 21.8267 98.322 22.808 98.322 24.088V29H96.45V23.816C96.45 23.1973 96.2687 22.712 95.906 22.36C95.554 21.9973 95.0953 21.816 94.53 21.816C93.922 21.816 93.4313 22.0187 93.058 22.424C92.6847 22.8293 92.498 23.3627 92.498 24.024V29H90.626ZM103.883 29.256C102.87 29.256 102.091 28.9307 101.547 28.28C101.003 27.6187 100.731 26.648 100.731 25.368V20.376H102.603V25.624C102.603 26.2213 102.768 26.696 103.099 27.048C103.43 27.3893 103.878 27.56 104.443 27.56C105.019 27.56 105.488 27.3787 105.851 27.016C106.224 26.6427 106.411 26.136 106.411 25.496V20.376H108.283V29H106.795V25.32H106.987C106.987 26.184 106.87 26.9093 106.635 27.496C106.411 28.072 106.075 28.5093 105.627 28.808C105.19 29.1067 104.635 29.256 103.963 29.256H103.883ZM115.864 29.288C115.16 29.288 114.53 29.1333 113.976 28.824C113.432 28.5147 113 28.0667 112.68 27.48C112.37 26.8933 112.2 26.184 112.168 25.352H112.552V29H111.064V17.32H112.936V23.08L112.376 24.12C112.408 23.2027 112.584 22.4507 112.904 21.864C113.234 21.2667 113.666 20.824 114.2 20.536C114.733 20.248 115.33 20.104 115.992 20.104C116.6 20.104 117.149 20.216 117.64 20.44C118.141 20.664 118.568 20.9787 118.92 21.384C119.282 21.7787 119.554 22.2427 119.736 22.776C119.928 23.3093 120.024 23.8853 120.024 24.504V24.824C120.024 25.4427 119.928 26.0187 119.736 26.552C119.544 27.0853 119.261 27.56 118.888 27.976C118.525 28.3813 118.088 28.7013 117.576 28.936C117.064 29.1707 116.493 29.288 115.864 29.288ZM115.528 27.672C116.05 27.672 116.509 27.544 116.904 27.288C117.298 27.032 117.602 26.68 117.816 26.232C118.04 25.7733 118.152 25.2507 118.152 24.664C118.152 24.0667 118.04 23.5493 117.816 23.112C117.592 22.664 117.282 22.3173 116.888 22.072C116.504 21.8267 116.05 21.704 115.528 21.704C115.058 21.704 114.621 21.8107 114.216 22.024C113.81 22.2373 113.485 22.5467 113.24 22.952C112.994 23.3467 112.872 23.8267 112.872 24.392V25.08C112.872 25.624 112.994 26.0933 113.24 26.488C113.496 26.872 113.826 27.1653 114.232 27.368C114.637 27.5707 115.069 27.672 115.528 27.672Z" fill="#FCFCFC"/>
</svg>
