<svg width="170" height="32" viewBox="0 0 170 32" fill="none" xmlns="http://www.w3.org/2000/svg">
<path d="M40.3094 7.07967H44.8565L49.8966 14.8315L54.9368 7.08341H59.4839V25.4065H55.289V13.4404L49.8966 21.2707H49.791L44.4495 13.5227V25.4027H40.3133L40.3094 7.07967Z" fill="#FCFCFC"/>
<path d="M62.4036 18.4064C62.4036 14.4052 65.3932 11.107 69.6625 11.107C74.5618 11.107 76.8158 14.7455 76.8158 18.7205C76.825 19.0705 76.804 19.4207 76.7532 19.7675H66.5398C66.6717 20.57 67.1123 21.2965 67.7752 21.8048C68.4382 22.3132 69.2759 22.5668 70.1242 22.516C70.7965 22.522 71.4627 22.3946 72.0808 22.142C72.6915 21.8915 73.2427 21.5251 73.7009 21.0651L76.0879 23.0806C75.0656 24.2287 73.7014 25.0518 72.1771 25.4401C70.6528 25.8284 69.0409 25.7636 67.5561 25.2543C66.0714 24.7449 64.7844 23.8152 63.8666 22.5891C62.9489 21.363 62.444 19.8987 62.4192 18.3914L62.4036 18.4064ZM72.7617 17.2845C72.5152 15.5046 71.4117 14.3416 69.6781 14.3416C67.9446 14.3416 66.8254 15.5121 66.5046 17.2845H72.7617Z" fill="#FCFCFC"/>
<path d="M79.7269 21.4165V14.7903H77.9659V11.3875H79.7229V7.80138H83.8826V11.3875H87.3575V14.7903H83.9022V20.7734C83.9022 21.6933 84.2935 22.1345 85.2444 22.1345C85.9631 22.1388 86.6713 21.969 87.3027 21.6409V24.8306C86.3072 25.3909 85.1667 25.6721 84.0118 25.6421C81.4878 25.6309 79.7269 24.6661 79.7269 21.4165Z" fill="#FCFCFC"/>
<path d="M88.9229 21.3156C88.9229 18.2493 91.3686 16.8283 94.8435 16.8283C96.0641 16.821 97.2769 17.0158 98.428 17.4042V17.1686C98.428 15.527 97.3636 14.6071 95.2974 14.6071C93.9084 14.6053 92.5319 14.8592 91.2434 15.355L90.2025 12.3223C91.9885 11.5418 93.9365 11.1582 95.9 11.2005C98.2088 11.2005 99.8132 11.7726 100.854 12.7673C101.417 13.3774 101.847 14.0882 102.12 14.8585C102.393 15.6289 102.502 16.4434 102.443 17.2546V25.3915H98.4201V23.8733C97.8624 24.4643 97.1753 24.9304 96.4076 25.2387C95.64 25.547 94.8107 25.6899 93.9787 25.657C91.1769 25.6757 88.9229 24.1426 88.9229 21.3156ZM98.4788 20.4518V19.7039C97.6446 19.3518 96.7415 19.1734 95.8296 19.1804C94.0491 19.1804 92.9534 19.861 92.9534 21.1698C92.9534 22.2392 93.8808 22.8712 95.227 22.8712C97.1835 22.9011 98.4788 21.8765 98.4788 20.4406V20.4518Z" fill="#FCFCFC"/>
<path d="M105.93 7.07967H120.569V10.763H110.191V14.6632H119.336V18.3465H110.191V25.4514H105.93V7.07967Z" fill="#FCFCFC"/>
<path d="M122.11 20.4406V11.3725H126.282V19.1916C126.282 21.0613 127.205 22.0448 128.802 22.0448C130.399 22.0448 131.396 21.08 131.396 19.1916V11.3725H135.56V25.3654H131.357V23.376C130.889 24.0598 130.251 24.6225 129.5 25.0139C128.749 25.4053 127.908 25.6134 127.053 25.6196C123.938 25.6757 122.11 23.7088 122.11 20.4406Z" fill="#FCFCFC"/>
<path d="M138.734 11.3725H142.893V13.3993C143.361 12.7147 143.999 12.1516 144.75 11.76C145.501 11.3685 146.342 11.1609 147.198 11.1556C150.328 11.1556 152.179 13.145 152.179 16.3609V25.4401H148.012V17.5874C148.012 15.7177 147.088 14.7305 145.492 14.7305C143.895 14.7305 142.893 15.7027 142.893 17.5874V25.4102H138.734V11.3725Z" fill="#FCFCFC"/>
<path d="M154.578 18.354C154.578 13.6685 157.783 11.107 161.266 11.107C162.146 11.09 163.017 11.2702 163.811 11.6332C164.605 11.9962 165.298 12.5319 165.836 13.1974V6.29068H170V25.3953H165.836V23.3835C165.334 24.0978 164.653 24.6805 163.855 25.0783C163.056 25.4761 162.166 25.6764 161.266 25.6608C157.838 25.6757 154.578 23.0956 154.578 18.354ZM165.891 18.354C165.891 16.0281 164.271 14.48 162.33 14.48C160.389 14.48 158.746 16.0057 158.746 18.4063C158.746 20.807 160.389 22.2804 162.33 22.2804C164.271 22.2804 165.891 20.7622 165.891 18.354Z" fill="#FCFCFC"/>
<path d="M28.8089 6.63466L10.2371 13.9863L0.0236435 13.9901L20.3526 5.94287L28.8089 6.63466Z" fill="url(#paint0_linear_3813_2217)"/>
<path d="M31.9901 18.0099V18.0137L11.669 26.0571L3.20872 25.3654L21.7767 18.0137L31.9901 18.0099Z" fill="url(#paint1_linear_3813_2217)"/>
<path d="M31.9982 18.0099L28.1437 26.8948C28.1437 26.9247 28.1124 26.9583 28.0968 26.992V27.0107C28.0194 27.1518 27.916 27.2785 27.7916 27.3846C27.6762 27.4802 27.5436 27.555 27.4002 27.6053L16.5294 31.9018C16.196 32.0327 15.822 32.0327 15.4885 31.9018L6.19475 28.2223L11.6732 26.0571L31.9943 18.0137L31.9982 18.0099Z" fill="url(#paint2_linear_3813_2217)"/>
<path d="M25.8269 3.77401L20.3485 5.94286L0 13.9901L3.85055 5.10898C3.99073 4.79124 4.25447 4.53787 4.58622 4.40223L15.4649 0.098177C15.7983 -0.0327257 16.1723 -0.0327257 16.5057 0.098177L25.8269 3.77401Z" fill="url(#paint3_linear_3813_2217)"/>
<path d="M31.0393 13.9751C30.8147 14.3097 30.4883 14.5707 30.104 14.723L21.7807 18.0174L3.22447 25.3653L0.821778 19.8273C0.718623 19.5909 0.665337 19.3374 0.665003 19.0813C0.664668 18.8252 0.717282 18.5715 0.819819 18.3349C0.922356 18.0983 1.07283 17.8834 1.26253 17.7025C1.45224 17.5215 1.67749 17.3782 1.92532 17.2807L10.2525 13.9863L28.8205 6.63466L31.2193 12.169C31.2193 12.169 31.2193 12.169 31.2193 12.1877C31.3409 12.4777 31.388 12.7913 31.3566 13.1023C31.3253 13.4133 31.2165 13.7126 31.0393 13.9751Z" fill="url(#paint4_linear_3813_2217)"/>
<defs>
<linearGradient id="paint0_linear_3813_2217" x1="14.4163" y1="5.94287" x2="14.4164" y2="13.9901" gradientUnits="userSpaceOnUse">
<stop stop-color="#5722C9"/>
<stop offset="1" stop-color="#8653F4"/>
</linearGradient>
<linearGradient id="paint1_linear_3813_2217" x1="17.5994" y1="18.0099" x2="17.5995" y2="26.0571" gradientUnits="userSpaceOnUse">
<stop stop-color="#5722C9"/>
<stop offset="1" stop-color="#8653F4"/>
</linearGradient>
<linearGradient id="paint2_linear_3813_2217" x1="32.4013" y1="21.5362" x2="7.66193" y2="32.6061" gradientUnits="userSpaceOnUse">
<stop stop-color="#DD4DFF"/>
<stop offset="1" stop-color="#5393FF"/>
</linearGradient>
<linearGradient id="paint3_linear_3813_2217" x1="26.2303" y1="3.52626" x2="1.47602" y2="14.6129" gradientUnits="userSpaceOnUse">
<stop stop-color="#DD4DFF"/>
<stop offset="1" stop-color="#5393FF"/>
</linearGradient>
<linearGradient id="paint4_linear_3813_2217" x1="31.8456" y1="11.3558" x2="1.34065" y2="23.486" gradientUnits="userSpaceOnUse">
<stop stop-color="#DD4DFF"/>
<stop offset="1" stop-color="#5393FF"/>
</linearGradient>
</defs>
</svg>
